<?xml version="1.0" encoding="UTF-8" standalone="no"?><svg width="278" height="36" viewBox="0 0 278 36" fill="none" xmlns="http://www.w3.org/2000/svg">
<path fill-rule="evenodd" clip-rule="evenodd" d="M17.5629 2.29821C16.4679 1.58514 15.117 1.37606 13.9088 1.56701C12.702 1.75775 11.4349 2.3856 10.6889 3.59168C10.3998 4.05902 10.2154 4.56969 10.1338 5.11151C8.95968 5.03288 7.77129 5.38896 6.8782 6.13379C5.97382 6.88802 5.39611 8.01648 5.39611 9.38526C5.39611 9.83421 5.45776 10.2947 5.58012 10.7648C5.13447 10.8591 4.70545 11.0238 4.30398 11.2504C2.97813 11.9989 2.04657 13.3599 1.67869 14.8326C1.30405 16.3323 1.48368 18.0701 2.55078 19.5587C3.09135 20.3129 3.82354 20.9537 4.74345 21.4575C4.51579 21.7622 4.32343 22.0907 4.16716 22.4348C3.52873 23.8403 3.48066 25.5057 3.96838 26.97C4.46302 28.4551 5.54634 29.8306 7.25436 30.4881C8.36749 30.9166 9.63922 30.9997 11.0333 30.7123C11.097 31.4241 11.2912 32.0709 11.6247 32.6366C12.339 33.8476 13.5354 34.4187 14.7081 34.4921C15.8284 34.5621 17.0637 34.167 18 33.3687C18.9363 34.167 20.1715 34.5621 21.2919 34.4921C22.4646 34.4187 23.661 33.8476 24.3753 32.6366C24.7087 32.0709 24.903 31.4241 24.9667 30.7123C26.3607 30.9997 27.6325 30.9166 28.7457 30.4881C30.4536 29.8306 31.5369 28.4551 32.0316 26.97C32.5194 25.5057 32.4712 23.8403 31.8328 22.4348C31.6765 22.0907 31.4842 21.7622 31.2565 21.4575C32.1765 20.9537 32.9086 20.3129 33.4492 19.5587C34.5163 18.0701 34.6959 16.3323 34.3213 14.8326C33.9534 13.3599 33.0219 11.9989 31.696 11.2504C31.2945 11.0238 30.8655 10.8591 30.4198 10.7648C30.5422 10.2947 30.6039 9.83421 30.6039 9.38526C30.6039 8.01648 30.0262 6.88802 29.1217 6.13379C28.2286 5.38896 27.0403 5.03288 25.8661 5.11151C25.7847 4.56969 25.6002 4.05902 25.3111 3.59168C24.565 2.3856 23.298 1.75775 22.0911 1.56701C20.883 1.37606 19.5321 1.58514 18.4371 2.29821C17.9791 2.59646 18.0208 2.59646 17.5629 2.29821ZM19.5049 30.0777V26.2932C19.5067 25.5741 19.6699 24.5186 20.0908 23.6997C20.4859 22.9308 20.9919 22.5402 21.7623 22.5402C22.5934 22.5402 23.2673 21.866 23.2673 21.0341C23.2673 20.2023 22.5934 19.5279 21.7623 19.5279C20.8803 19.5279 20.1324 19.74 19.5049 20.0841V18.7626C19.5067 18.0435 19.6699 16.9881 20.0908 16.1691C20.4859 15.4002 20.9919 15.0096 21.7623 15.0096C22.5934 15.0096 23.2673 14.3353 23.2673 13.5035C23.2673 12.6717 22.5934 11.9974 21.7623 11.9974C20.8803 11.9974 20.1324 12.2094 19.5049 12.5535V5.96298C19.5075 5.3678 19.7506 5.03669 20.0788 4.82292C20.4654 4.57119 21.0426 4.45085 21.6216 4.54236C22.2019 4.63409 22.5808 4.90056 22.7518 5.17713C22.8904 5.40117 23.0589 5.89935 22.6365 6.88581C22.3522 7.54941 22.5786 8.32149 23.176 8.72625C23.7735 9.13101 24.5737 9.05459 25.0839 8.54406C25.6355 7.99217 26.6344 7.98048 27.1948 8.44784C27.4192 8.63493 27.594 8.91846 27.594 9.38526C27.594 9.89133 27.3822 10.7195 26.5575 11.8751C26.1352 12.4667 26.1955 13.2758 26.7009 13.7982C27.2062 14.3205 28.0123 14.407 28.6168 14.0037C29.2651 13.5711 29.7849 13.63 30.2172 13.874C30.7255 14.1609 31.2048 14.7767 31.4013 15.5633C31.591 16.3227 31.4884 17.1264 31.0035 17.8029C30.5199 18.4776 29.5147 19.2182 27.5347 19.5485C26.8024 19.6706 26.2686 20.3088 26.2773 21.0516C26.2858 21.7944 26.8344 22.4201 27.5692 22.5251C28.3218 22.6326 28.8105 23.0598 29.0928 23.6811C29.3949 24.3465 29.4409 25.2226 29.1762 26.0175C28.9183 26.7915 28.4026 27.3928 27.6651 27.6766C26.9247 27.9616 25.7098 28.0213 23.89 27.1935C23.3641 26.9543 22.7479 27.0375 22.3041 27.4074C21.8602 27.7775 21.6672 28.3691 21.8073 28.9299C21.9931 29.674 22.3002 31.4109 21.1041 31.4857C20.2776 31.5373 19.5093 30.9082 19.5049 30.0777ZM16.495 5.96298C16.4925 5.3678 16.2493 5.03669 15.9211 4.82292C15.5346 4.57119 14.9574 4.45085 14.3784 4.54236C13.798 4.63409 13.4192 4.90056 13.2481 5.17713C13.1095 5.40117 12.9411 5.89935 13.3635 6.88581C13.6477 7.54941 13.4214 8.32149 12.824 8.72625C12.2266 9.13101 11.4262 9.05459 10.9161 8.54406C10.3646 7.99217 9.36547 7.98048 8.80509 8.44784C8.58076 8.63493 8.406 8.91846 8.406 9.38526C8.406 9.89133 8.61772 10.7195 9.44251 11.8751C9.86479 12.4667 9.80443 13.2758 9.29905 13.7982C8.79369 14.3205 7.98757 14.407 7.38309 14.0037C6.7348 13.5711 6.2151 13.63 5.7828 13.874C5.27451 14.1609 4.79518 14.7767 4.59871 15.5633C4.40899 16.3227 4.51155 17.1264 4.99642 17.8029C5.48013 18.4776 6.48523 19.2182 8.46529 19.5485C9.19749 19.6706 9.73135 20.3088 9.72273 21.0516C9.7141 21.7944 9.16555 22.4201 8.43072 22.5251C7.6782 22.6326 7.1895 23.0598 6.90726 23.6811C6.60508 24.3465 6.55909 25.2226 6.82383 26.0175C7.08165 26.7915 7.59733 27.3928 8.33484 27.6766C9.07531 27.9616 10.2902 28.0213 12.1099 27.1935C12.6358 26.9543 13.2521 27.0375 13.6959 27.4074C14.1398 27.7775 14.3328 28.3691 14.1927 28.9299C14.0068 29.674 13.6999 31.4109 14.8959 31.4857C15.7224 31.5373 16.4907 30.9082 16.495 30.0777V30.0708V26.2938C16.4932 25.5747 16.3302 24.5189 15.9091 23.6997C15.514 22.9308 15.0081 22.5402 14.2376 22.5402C13.4065 22.5402 12.7327 21.866 12.7327 21.0341C12.7327 20.2023 13.4065 19.5279 14.2376 19.5279C15.1197 19.5279 15.8676 19.74 16.495 20.0841V18.7632C16.4932 18.0441 16.3302 16.9883 15.9091 16.1691C15.514 15.4002 15.0081 15.0096 14.2376 15.0096C13.4065 15.0096 12.7327 14.3353 12.7327 13.5035C12.7327 12.6717 13.4065 11.9974 14.2376 11.9974C15.1197 11.9974 15.8676 12.2094 16.495 12.5535V5.96298Z" fill="#1C1C1C"/>
<path d="M47.46 24.1113C47.0452 23.8151 46.931 23.4977 47.1172 23.1592L47.7646 21.9785C47.9932 21.5553 48.3486 21.5046 48.8311 21.8262C49.3135 22.1478 49.8805 22.3848 50.5322 22.5371C51.1924 22.6895 51.7933 22.7656 52.335 22.7656C52.7158 22.7656 53.0713 22.7275 53.4014 22.6514C53.7314 22.5752 54.0107 22.4271 54.2393 22.207C54.4678 21.987 54.582 21.6654 54.582 21.2422C54.582 20.9883 54.5143 20.7725 54.3789 20.5947C54.2435 20.417 54.07 20.2816 53.8584 20.1885C53.6468 20.0954 53.4225 20.0192 53.1855 19.96C52.8724 19.8838 52.4196 19.7568 51.8271 19.5791C51.2432 19.4014 50.6803 19.194 50.1387 18.957C49.6901 18.7624 49.25 18.4915 48.8184 18.1445C48.3952 17.7891 48.082 17.3955 47.8789 16.9639C47.6842 16.5322 47.5869 15.999 47.5869 15.3643C47.5869 14.5094 47.8324 13.7604 48.3232 13.1172C48.8226 12.474 49.4658 12.0296 50.2529 11.7842C51.04 11.5387 52.0218 11.416 53.1982 11.416C53.9938 11.416 54.7682 11.5303 55.5215 11.7588C56.2747 11.9873 56.8122 12.2031 57.1338 12.4062C57.6416 12.7279 57.7686 13.0706 57.5146 13.4346L56.7402 14.5645C56.5033 14.903 56.1224 14.9284 55.5977 14.6406C55.1999 14.4206 54.8063 14.2428 54.417 14.1074C54.0361 13.972 53.6087 13.9043 53.1348 13.9043C52.8132 13.9043 52.5042 13.9382 52.208 14.0059C51.9118 14.0736 51.6579 14.2005 51.4463 14.3867C51.2432 14.5729 51.1416 14.8184 51.1416 15.123C51.1416 15.4447 51.2347 15.6986 51.4209 15.8848C51.6156 16.0625 51.8356 16.1937 52.0811 16.2783C52.335 16.363 52.5762 16.4434 52.8047 16.5195C53.2786 16.6719 53.7568 16.82 54.2393 16.9639C54.7217 17.0993 55.2126 17.2643 55.7119 17.459C56.1436 17.6283 56.5625 17.8695 56.9688 18.1826C57.375 18.4958 57.6712 18.8936 57.8574 19.376C58.0436 19.8584 58.1367 20.4085 58.1367 21.0264C58.1367 21.8473 57.8913 22.609 57.4004 23.3115C56.9095 24.014 56.262 24.5133 55.458 24.8096C54.654 25.1058 53.7188 25.2539 52.6523 25.2539C51.459 25.2539 50.4434 25.1693 49.6055 25C48.7676 24.8307 48.0524 24.5345 47.46 24.1113ZM61.2598 25C60.752 25 60.498 24.7461 60.498 24.2383V12.4316C60.498 11.9238 60.752 11.6699 61.2598 11.6699H63.2656C63.7734 11.6699 64.0273 11.9238 64.0273 12.4316V13.168H64.0781C64.3236 12.6263 64.7383 12.1989 65.3223 11.8857C65.9062 11.5726 66.4521 11.416 66.96 11.416C67.9756 11.416 68.7627 11.653 69.3213 12.127C69.8883 12.6009 70.2777 13.1299 70.4893 13.7139H70.54C71.2764 12.7575 71.9408 12.1354 72.5332 11.8477C73.1341 11.5599 73.9001 11.416 74.8311 11.416C76.0837 11.416 77.1374 11.8307 77.9922 12.6602C78.8555 13.4896 79.2871 15.0046 79.2871 17.2051V24.2383C79.2871 24.7461 79.0332 25 78.5254 25H76.4941C75.9863 25 75.7324 24.7461 75.7324 24.2383V18.1191C75.7324 16.2741 75.6055 15.1104 75.3516 14.6279C75.1061 14.1455 74.666 13.9043 74.0312 13.9043C73.4388 13.9043 72.8971 14.2513 72.4062 14.9453C71.9154 15.6393 71.6699 17.0697 71.6699 19.2363V24.2383C71.6699 24.7461 71.416 25 70.9082 25H68.877C68.3691 25 68.1152 24.7461 68.1152 24.2383V18.1191C68.1152 16.2741 67.9883 15.1104 67.7344 14.6279C67.4889 14.1455 67.0488 13.9043 66.4141 13.9043C65.8216 13.9043 65.2799 14.2513 64.7891 14.9453C64.2982 15.6309 64.0527 17.0612 64.0527 19.2363V24.2383C64.0527 24.7461 63.7988 25 63.291 25H61.2598ZM82.0039 21.4453C82.0039 19.7526 82.8122 18.5254 84.4287 17.7637C86.0452 17.002 87.8903 16.5957 89.9639 16.5449V16.0371C89.9639 15.2585 89.7692 14.7083 89.3799 14.3867C88.9906 14.0651 88.4489 13.9043 87.7549 13.9043C87.264 13.9043 86.8281 13.9762 86.4473 14.1201C86.0749 14.2555 85.749 14.4163 85.4697 14.6025C85.1989 14.7803 84.9535 14.9622 84.7334 15.1484C84.3441 15.487 84.0225 15.5039 83.7686 15.1992L82.7148 13.9043C82.4525 13.5827 82.516 13.2526 82.9053 12.9141C83.2015 12.6517 83.5443 12.4232 83.9336 12.2285C84.3314 12.0339 84.8561 11.8519 85.5078 11.6826C86.1595 11.5049 87.0059 11.416 88.0469 11.416C89.8073 11.416 91.1572 11.8223 92.0967 12.6348C93.0446 13.4473 93.5186 14.6449 93.5186 16.2275V24.2383C93.5186 24.7461 93.2646 25 92.7568 25H90.6748C90.2178 25 89.9893 24.7461 89.9893 24.2383V23.8574H89.9639C89.4645 24.3398 88.8636 24.6953 88.1611 24.9238C87.4671 25.1439 86.8281 25.2539 86.2441 25.2539C84.8561 25.2539 83.8024 24.9154 83.083 24.2383C82.3636 23.5527 82.0039 22.6217 82.0039 21.4453ZM85.7617 21.3691C85.7617 21.6654 85.821 21.9235 85.9395 22.1436C86.0579 22.3551 86.2441 22.5117 86.498 22.6133C86.752 22.7148 87.0355 22.7656 87.3486 22.7656C87.7803 22.7656 88.1992 22.7064 88.6055 22.5879C89.0117 22.4694 89.4645 22.1901 89.9639 21.75V18.9951C88.542 19.1559 87.5898 19.3633 87.1074 19.6172C86.625 19.8711 86.278 20.1335 86.0664 20.4043C85.8633 20.6751 85.7617 20.9967 85.7617 21.3691ZM97.7461 25C97.2383 25 96.9844 24.7461 96.9844 24.2383V12.4316C96.9844 11.9238 97.2383 11.6699 97.7461 11.6699H99.752C100.26 11.6699 100.514 11.9238 100.514 12.4316V13.4727H100.564C100.785 12.931 101.153 12.4528 101.669 12.0381C102.185 11.6234 102.795 11.416 103.497 11.416C103.979 11.416 104.377 11.4753 104.69 11.5938C104.987 11.7038 105.101 11.9069 105.033 12.2031L104.678 13.7139C104.602 14.0524 104.373 14.154 103.992 14.0186C103.772 13.9424 103.561 13.9043 103.357 13.9043C102.545 13.9043 101.872 14.391 101.339 15.3643C100.806 16.3376 100.539 17.7552 100.539 19.6172V24.2383C100.539 24.7461 100.285 25 99.7773 25H97.7461ZM106.519 14.209C106.019 14.209 105.77 13.9974 105.77 13.5742V12.3047C105.77 11.8815 106.019 11.6699 106.519 11.6699H107.382V11.2256C107.382 10.8447 107.471 10.4977 107.648 10.1846L108.626 8.4707C108.812 8.14909 109.032 7.98828 109.286 7.98828H110.175C110.683 7.98828 110.937 8.24219 110.937 8.75V11.6699H112.993C113.493 11.6699 113.742 11.8815 113.742 12.3047V13.5742C113.742 13.9974 113.493 14.209 112.993 14.209H110.937V20.5059C110.937 21.3691 110.996 21.9912 111.114 22.3721C111.241 22.7445 111.563 22.9307 112.079 22.9307C112.341 22.9307 112.638 22.8883 112.968 22.8037C113.298 22.7106 113.556 22.6217 113.742 22.5371C114.038 22.4017 114.233 22.499 114.326 22.8291L114.707 24.2764C114.783 24.5641 114.673 24.7757 114.377 24.9111C114.098 25.0381 113.713 25.1523 113.222 25.2539C112.739 25.3639 112.253 25.4189 111.762 25.4189C110.551 25.4189 109.519 25.1693 108.664 24.6699C107.809 24.1706 107.382 23.1423 107.382 21.585V14.209H106.519ZM116.649 14.209C116.15 14.209 115.9 13.9974 115.9 13.5742V12.3047C115.9 11.8815 116.15 11.6699 116.649 11.6699H117.36V9.89258C117.36 8.33529 117.805 7.2985 118.693 6.78223C119.582 6.26595 120.64 6.00781 121.867 6.00781C122.451 6.00781 122.951 6.04167 123.365 6.10938C123.788 6.17708 124.161 6.26172 124.482 6.36328C124.787 6.46484 124.897 6.67643 124.812 6.99805L124.432 8.43262C124.355 8.71191 124.161 8.79655 123.848 8.68652C123.661 8.61882 123.399 8.57227 123.061 8.54688C122.73 8.51302 122.468 8.49609 122.273 8.49609C121.656 8.49609 121.275 8.71191 121.131 9.14355C120.987 9.5752 120.915 10.248 120.915 11.1621V11.6699H122.591C123.09 11.6699 123.34 11.8815 123.34 12.3047V13.5742C123.34 13.9974 123.09 14.209 122.591 14.209H120.915V24.2383C120.915 24.7461 120.661 25 120.153 25H118.122C117.614 25 117.36 24.7461 117.36 24.2383V14.209H116.649ZM125.041 18.335C125.041 16.1768 125.595 14.484 126.704 13.2568C127.821 12.0296 129.48 11.416 131.681 11.416C133.881 11.416 135.536 12.0296 136.645 13.2568C137.762 14.484 138.32 16.1768 138.32 18.335C138.32 20.4932 137.762 22.1859 136.645 23.4131C135.536 24.6403 133.881 25.2539 131.681 25.2539C129.48 25.2539 127.821 24.6403 126.704 23.4131C125.595 22.1859 125.041 20.4932 125.041 18.335ZM128.799 18.335C128.799 19.943 129.044 21.0856 129.535 21.7627C130.035 22.4313 130.75 22.7656 131.681 22.7656C132.612 22.7656 133.323 22.4313 133.813 21.7627C134.313 21.0856 134.562 19.943 134.562 18.335C134.562 16.7269 134.313 15.5885 133.813 14.9199C133.323 14.2428 132.612 13.9043 131.681 13.9043C130.75 13.9043 130.035 14.2428 129.535 14.9199C129.044 15.5885 128.799 16.7269 128.799 18.335ZM141.824 25C141.316 25 141.062 24.7461 141.062 24.2383V12.4316C141.062 11.9238 141.316 11.6699 141.824 11.6699H143.83C144.338 11.6699 144.592 11.9238 144.592 12.4316V13.4727H144.643C144.863 12.931 145.231 12.4528 145.747 12.0381C146.263 11.6234 146.873 11.416 147.575 11.416C148.058 11.416 148.455 11.4753 148.769 11.5938C149.065 11.7038 149.179 11.9069 149.111 12.2031L148.756 13.7139C148.68 14.0524 148.451 14.154 148.07 14.0186C147.85 13.9424 147.639 13.9043 147.436 13.9043C146.623 13.9043 145.95 14.391 145.417 15.3643C144.884 16.3376 144.617 17.7552 144.617 19.6172V24.2383C144.617 24.7461 144.363 25 143.855 25H141.824ZM151.803 25C151.295 25 151.041 24.7461 151.041 24.2383V12.4316C151.041 11.9238 151.295 11.6699 151.803 11.6699H153.809C154.316 11.6699 154.57 11.9238 154.57 12.4316V13.168H154.621C154.867 12.6263 155.281 12.1989 155.865 11.8857C156.449 11.5726 156.995 11.416 157.503 11.416C158.519 11.416 159.306 11.653 159.864 12.127C160.431 12.6009 160.821 13.1299 161.032 13.7139H161.083C161.819 12.7575 162.484 12.1354 163.076 11.8477C163.677 11.5599 164.443 11.416 165.374 11.416C166.627 11.416 167.68 11.8307 168.535 12.6602C169.398 13.4896 169.83 15.0046 169.83 17.2051V24.2383C169.83 24.7461 169.576 25 169.068 25H167.037C166.529 25 166.275 24.7461 166.275 24.2383V18.1191C166.275 16.2741 166.148 15.1104 165.895 14.6279C165.649 14.1455 165.209 13.9043 164.574 13.9043C163.982 13.9043 163.44 14.2513 162.949 14.9453C162.458 15.6393 162.213 17.0697 162.213 19.2363V24.2383C162.213 24.7461 161.959 25 161.451 25H159.42C158.912 25 158.658 24.7461 158.658 24.2383V18.1191C158.658 16.2741 158.531 15.1104 158.277 14.6279C158.032 14.1455 157.592 13.9043 156.957 13.9043C156.365 13.9043 155.823 14.2513 155.332 14.9453C154.841 15.6309 154.596 17.0612 154.596 19.2363V24.2383C154.596 24.7461 154.342 25 153.834 25H151.803ZM172.547 21.4453C172.547 19.7526 173.355 18.5254 174.972 17.7637C176.588 17.002 178.433 16.5957 180.507 16.5449V16.0371C180.507 15.2585 180.312 14.7083 179.923 14.3867C179.534 14.0651 178.992 13.9043 178.298 13.9043C177.807 13.9043 177.371 13.9762 176.99 14.1201C176.618 14.2555 176.292 14.4163 176.013 14.6025C175.742 14.7803 175.496 14.9622 175.276 15.1484C174.887 15.487 174.565 15.5039 174.312 15.1992L173.258 13.9043C172.995 13.5827 173.059 13.2526 173.448 12.9141C173.744 12.6517 174.087 12.4232 174.477 12.2285C174.874 12.0339 175.399 11.8519 176.051 11.6826C176.702 11.5049 177.549 11.416 178.59 11.416C180.35 11.416 181.7 11.8223 182.64 12.6348C183.588 13.4473 184.062 14.6449 184.062 16.2275V24.2383C184.062 24.7461 183.808 25 183.3 25H181.218C180.761 25 180.532 24.7461 180.532 24.2383V23.8574H180.507C180.007 24.3398 179.407 24.6953 178.704 24.9238C178.01 25.1439 177.371 25.2539 176.787 25.2539C175.399 25.2539 174.345 24.9154 173.626 24.2383C172.907 23.5527 172.547 22.6217 172.547 21.4453ZM176.305 21.3691C176.305 21.6654 176.364 21.9235 176.482 22.1436C176.601 22.3551 176.787 22.5117 177.041 22.6133C177.295 22.7148 177.578 22.7656 177.892 22.7656C178.323 22.7656 178.742 22.7064 179.148 22.5879C179.555 22.4694 180.007 22.1901 180.507 21.75V18.9951C179.085 19.1559 178.133 19.3633 177.65 19.6172C177.168 19.8711 176.821 20.1335 176.609 20.4043C176.406 20.6751 176.305 20.9967 176.305 21.3691ZM187.083 14.209C186.584 14.209 186.334 13.9974 186.334 13.5742V12.3047C186.334 11.8815 186.584 11.6699 187.083 11.6699H187.946V11.2256C187.946 10.8447 188.035 10.4977 188.213 10.1846L189.19 8.4707C189.377 8.14909 189.597 7.98828 189.851 7.98828H190.739C191.247 7.98828 191.501 8.24219 191.501 8.75V11.6699H193.558C194.057 11.6699 194.307 11.8815 194.307 12.3047V13.5742C194.307 13.9974 194.057 14.209 193.558 14.209H191.501V20.5059C191.501 21.3691 191.56 21.9912 191.679 22.3721C191.806 22.7445 192.127 22.9307 192.644 22.9307C192.906 22.9307 193.202 22.8883 193.532 22.8037C193.862 22.7106 194.12 22.6217 194.307 22.5371C194.603 22.4017 194.798 22.499 194.891 22.8291L195.271 24.2764C195.348 24.5641 195.238 24.7757 194.941 24.9111C194.662 25.0381 194.277 25.1523 193.786 25.2539C193.304 25.3639 192.817 25.4189 192.326 25.4189C191.116 25.4189 190.083 25.1693 189.229 24.6699C188.374 24.1706 187.946 23.1423 187.946 21.585V14.209H187.083ZM198.42 25C197.912 25 197.658 24.7461 197.658 24.2383V12.4316C197.658 11.9238 197.912 11.6699 198.42 11.6699H200.451C200.959 11.6699 201.213 11.9238 201.213 12.4316V24.2383C201.213 24.7461 200.959 25 200.451 25H198.42ZM198.42 9.71484C197.912 9.71484 197.658 9.46094 197.658 8.95312V7.32812C197.658 6.82031 197.912 6.56641 198.42 6.56641H200.451C200.959 6.56641 201.213 6.82031 201.213 7.32812V8.95312C201.213 9.46094 200.959 9.71484 200.451 9.71484H198.42ZM203.955 18.335C203.955 16.1768 204.509 14.484 205.618 13.2568C206.735 12.0296 208.394 11.416 210.595 11.416C212.795 11.416 214.45 12.0296 215.559 13.2568C216.676 14.484 217.234 16.1768 217.234 18.335C217.234 20.4932 216.676 22.1859 215.559 23.4131C214.45 24.6403 212.795 25.2539 210.595 25.2539C208.394 25.2539 206.735 24.6403 205.618 23.4131C204.509 22.1859 203.955 20.4932 203.955 18.335ZM207.713 18.335C207.713 19.943 207.958 21.0856 208.449 21.7627C208.949 22.4313 209.664 22.7656 210.595 22.7656C211.526 22.7656 212.237 22.4313 212.728 21.7627C213.227 21.0856 213.477 19.943 213.477 18.335C213.477 16.7269 213.227 15.5885 212.728 14.9199C212.237 14.2428 211.526 13.9043 210.595 13.9043C209.664 13.9043 208.949 14.2428 208.449 14.9199C207.958 15.5885 207.713 16.7269 207.713 18.335ZM220.738 25C220.23 25 219.977 24.7461 219.977 24.2383V12.4316C219.977 11.9238 220.23 11.6699 220.738 11.6699H222.744C223.252 11.6699 223.506 11.9238 223.506 12.4316V13.168H223.557C223.946 12.4993 224.441 12.0423 225.042 11.7969C225.643 11.543 226.367 11.416 227.213 11.416C228.533 11.416 229.625 11.8307 230.488 12.6602C231.352 13.4896 231.783 15.0046 231.783 17.2051V24.2383C231.783 24.7461 231.529 25 231.021 25H228.99C228.482 25 228.229 24.7461 228.229 24.2383V18.1191C228.229 16.2741 228.102 15.1104 227.848 14.6279C227.594 14.1455 227.048 13.9043 226.21 13.9043C225.321 13.9043 224.653 14.2513 224.204 14.9453C223.756 15.6309 223.531 17.0612 223.531 19.2363V24.2383C223.531 24.7461 223.277 25 222.77 25H220.738ZM234.944 24.1113C234.53 23.8151 234.415 23.4977 234.602 23.1592L235.249 21.9785C235.478 21.5553 235.833 21.5046 236.315 21.8262C236.798 22.1478 237.365 22.3848 238.017 22.5371C238.677 22.6895 239.278 22.7656 239.819 22.7656C240.2 22.7656 240.556 22.7275 240.886 22.6514C241.216 22.5752 241.495 22.4271 241.724 22.207C241.952 21.987 242.066 21.6654 242.066 21.2422C242.066 20.9883 241.999 20.7725 241.863 20.5947C241.728 20.417 241.554 20.2816 241.343 20.1885C241.131 20.0954 240.907 20.0192 240.67 19.96C240.357 19.8838 239.904 19.7568 239.312 19.5791C238.728 19.4014 238.165 19.194 237.623 18.957C237.174 18.7624 236.734 18.4915 236.303 18.1445C235.88 17.7891 235.566 17.3955 235.363 16.9639C235.169 16.5322 235.071 15.999 235.071 15.3643C235.071 14.5094 235.317 13.7604 235.808 13.1172C236.307 12.474 236.95 12.0296 237.737 11.7842C238.524 11.5387 239.506 11.416 240.683 11.416C241.478 11.416 242.253 11.5303 243.006 11.7588C243.759 11.9873 244.297 12.2031 244.618 12.4062C245.126 12.7279 245.253 13.0706 244.999 13.4346L244.225 14.5645C243.988 14.903 243.607 14.9284 243.082 14.6406C242.684 14.4206 242.291 14.2428 241.901 14.1074C241.521 13.972 241.093 13.9043 240.619 13.9043C240.298 13.9043 239.989 13.9382 239.692 14.0059C239.396 14.0736 239.142 14.2005 238.931 14.3867C238.728 14.5729 238.626 14.8184 238.626 15.123C238.626 15.4447 238.719 15.6986 238.905 15.8848C239.1 16.0625 239.32 16.1937 239.565 16.2783C239.819 16.363 240.061 16.4434 240.289 16.5195C240.763 16.6719 241.241 16.82 241.724 16.9639C242.206 17.0993 242.697 17.2643 243.196 17.459C243.628 17.6283 244.047 17.8695 244.453 18.1826C244.859 18.4958 245.156 18.8936 245.342 19.376C245.528 19.8584 245.621 20.4085 245.621 21.0264C245.621 21.8473 245.376 22.609 244.885 23.3115C244.394 24.014 243.746 24.5133 242.942 24.8096C242.138 25.1058 241.203 25.2539 240.137 25.2539C238.943 25.2539 237.928 25.1693 237.09 25C236.252 24.8307 235.537 24.5345 234.944 24.1113ZM249.531 25C248.939 25 248.643 24.6826 248.643 24.0479V22.3467C248.643 21.7119 248.939 21.3945 249.531 21.3945H251.461C252.053 21.3945 252.35 21.7119 252.35 22.3467V24.0479C252.35 24.6826 252.053 25 251.461 25H249.531ZM257.225 25C256.717 25 256.463 24.7461 256.463 24.2383V12.4316C256.463 11.9238 256.717 11.6699 257.225 11.6699H259.256C259.764 11.6699 260.018 11.9238 260.018 12.4316V24.2383C260.018 24.7461 259.764 25 259.256 25H257.225ZM257.225 9.71484C256.717 9.71484 256.463 9.46094 256.463 8.95312V7.32812C256.463 6.82031 256.717 6.56641 257.225 6.56641H259.256C259.764 6.56641 260.018 6.82031 260.018 7.32812V8.95312C260.018 9.46094 259.764 9.71484 259.256 9.71484H257.225ZM262.76 18.335C262.76 16.1768 263.314 14.484 264.423 13.2568C265.54 12.0296 267.199 11.416 269.399 11.416C271.6 11.416 273.255 12.0296 274.363 13.2568C275.48 14.484 276.039 16.1768 276.039 18.335C276.039 20.4932 275.48 22.1859 274.363 23.4131C273.255 24.6403 271.6 25.2539 269.399 25.2539C267.199 25.2539 265.54 24.6403 264.423 23.4131C263.314 22.1859 262.76 20.4932 262.76 18.335ZM266.518 18.335C266.518 19.943 266.763 21.0856 267.254 21.7627C267.753 22.4313 268.468 22.7656 269.399 22.7656C270.33 22.7656 271.041 22.4313 271.532 21.7627C272.032 21.0856 272.281 19.943 272.281 18.335C272.281 16.7269 272.032 15.5885 271.532 14.9199C271.041 14.2428 270.33 13.9043 269.399 13.9043C268.468 13.9043 267.753 14.2428 267.254 14.9199C266.763 15.5885 266.518 16.7269 266.518 18.335Z" fill="#1C1C1C"/>
</svg>
